HIERARCHY
ROOT Hips
{
  OFFSET 5.72205e-005 65.662 3.42586
  CHANNELS 6 Xposition Yposition Zposition Zrotation Xrotation Yrotation
  JOINT Chest
  {
    OFFSET 0 8.7983 -4.7612
    CHANNELS 6 Xposition Yposition Zposition Zrotation Xrotation Yrotation
    JOINT Chest2
    {
      OFFSET 0 8.0291 0.4195
      CHANNELS 6 Xposition Yposition Zposition Zrotation Xrotation Yrotation
      JOINT Chest3
      {
        OFFSET 0 9.9351 -2.2114
        CHANNELS 6 Xposition Yposition Zposition Zrotation Xrotation Yrotation
        JOINT Neck
        {
          OFFSET 0 22.3885 -0.4656
          CHANNELS 6 Xposition Yposition Zposition Zrotation Xrotation Yrotation
          JOINT Head
          {
            OFFSET -0.0001 12.643 3.4389
            CHANNELS 6 Xposition Yposition Zposition Zrotation Xrotation Yrotation
            End Site
            {
              OFFSET 0.0001 17.6655 0.5274
            }
          }
        }
        JOINT LeftCollar
        {
          OFFSET 2.2603 21.606 7.4023
          CHANNELS 6 Xposition Yposition Zposition Zrotation Xrotation Yrotation
          JOINT LeftShoulder
          {
            OFFSET 13.5163 -1.1332 -5.0146
            CHANNELS 6 Xposition Yposition Zposition Zrotation Xrotation Yrotation
            JOINT LeftElbow
            {
              OFFSET -0.0995 -28.05 -0.2431
              CHANNELS 6 Xposition Yposition Zposition Zrotation Xrotation Yrotation
              JOINT LeftWrist
              {
                OFFSET 0.0679 -23.3996 -0.1402
                CHANNELS 6 Xposition Yposition Zposition Zrotation Xrotation Yrotation
                JOINT LeftFinger1
                {
                  OFFSET 0.7932 -9.069 2.5189
                  CHANNELS 6 Xposition Yposition Zposition Zrotation Xrotation Yrotation
                  JOINT LeftFinger11
                  {
                    OFFSET -0.8272 -3.3923 0.5977
                    CHANNELS 6 Xposition Yposition Zposition Zrotation Xrotation Yrotation
                    JOINT LeftFinger12
                    {
                      OFFSET -0.5649 -2.3158 0.4082
                      CHANNELS 6 Xposition Yposition Zposition Zrotation Xrotation Yrotation
                      End Site
                      {
                        OFFSET -0.4919 -1.6479 0.2673
                      }
                    }
                  }
                }
                JOINT LeftFinger2
                {
                  OFFSET 0.9159 -9.2044 0.2193
                  CHANNELS 6 Xposition Yposition Zposition Zrotation Xrotation Yrotation
                  JOINT LeftFinger21
                  {
                    OFFSET 0.0117 -4.1944 -0.0248
                    CHANNELS 6 Xposition Yposition Zposition Zrotation Xrotation Yrotation
                    JOINT LeftFinger22
                    {
                      OFFSET 0.0071 -2.3249 -0.0142
                      CHANNELS 6 Xposition Yposition Zposition Zrotation Xrotation Yrotation
                      End Site
                      {
                        OFFSET -0.1475 -2.0882 0.0028
                      }
                    }
                  }
                }
                JOINT LeftFinger3
                {
                  OFFSET 0.6113 -8.7231 -2.0637
                  CHANNELS 6 Xposition Yposition Zposition Zrotation Xrotation Yrotation
                  JOINT LeftFinger31
                  {
                    OFFSET -0.1927 -3.8059 -0.2383
                    CHANNELS 6 Xposition Yposition Zposition Zrotation Xrotation Yrotation
                    JOINT LeftFinger32
                    {
                      OFFSET -0.1091 -2.1688 -0.1362
                      CHANNELS 6 Xposition Yposition Zposition Zrotation Xrotation Yrotation
                      End Site
                      {
                        OFFSET -0.2358 -1.9176 -0.0906
                      }
                    }
                  }
                }
                JOINT LeftFinger4
                {
                  OFFSET -0.6151 -8.0947 -3.5641
                  CHANNELS 6 Xposition Yposition Zposition Zrotation Xrotation Yrotation
                  JOINT LeftFinger41
                  {
                    OFFSET -0.4882 -2.341 -0.6462
                    CHANNELS 6 Xposition Yposition Zposition Zrotation Xrotation Yrotation
                    JOINT LeftFinger42
                    {
                      OFFSET -0.3575 -1.7167 -0.4742
                      CHANNELS 6 Xposition Yposition Zposition Zrotation Xrotation Yrotation
                      End Site
                      {
                        OFFSET -0.4187 -1.5237 -0.3496
                      }
                    }
                  }
                }
                JOINT LeftFinger0
                {
                  OFFSET -1.42 -1.8761 1.4223
                  CHANNELS 6 Xposition Yposition Zposition Zrotation Xrotation Yrotation
                  JOINT LeftFinger01
                  {
                    OFFSET -1.1471 -3.4929 2.6334
                    CHANNELS 6 Xposition Yposition Zposition Zrotation Xrotation Yrotation
                    JOINT LeftFinger02
                    {
                      OFFSET -0.823 -2.3 1.6571
                      CHANNELS 6 Xposition Yposition Zposition Zrotation Xrotation Yrotation
                      End Site
                      {
                        OFFSET -0.5822 -1.6914 1.1582
                      }
                    }
                  }
                }
              }
            }
          }
        }
        JOINT RightCollar
        {
          OFFSET -2.2603 21.606 7.4023
          CHANNELS 6 Xposition Yposition Zposition Zrotation Xrotation Yrotation
          JOINT RightShoulder
          {
            OFFSET -13.5187 -1.1334 -5.0155
            CHANNELS 6 Xposition Yposition Zposition Zrotation Xrotation Yrotation
            JOINT RightElbow
            {
              OFFSET 0.0994 -28.0499 -0.2431
              CHANNELS 6 Xposition Yposition Zposition Zrotation Xrotation Yrotation
              JOINT RightWrist
              {
                OFFSET -0.0679 -23.3996 -0.1402
                CHANNELS 6 Xposition Yposition Zposition Zrotation Xrotation Yrotation
                JOINT RightFinger1
                {
                  OFFSET -0.7932 -9.0691 2.5189
                  CHANNELS 6 Xposition Yposition Zposition Zrotation Xrotation Yrotation
                  JOINT RightFinger11
                  {
                    OFFSET 0.8272 -3.3923 0.5977
                    CHANNELS 6 Xposition Yposition Zposition Zrotation Xrotation Yrotation
                    JOINT RightFinger12
                    {
                      OFFSET 0.565 -2.3158 0.4082
                      CHANNELS 6 Xposition Yposition Zposition Zrotation Xrotation Yrotation
                      End Site
                      {
                        OFFSET 0.4919 -1.6479 0.2673
                      }
                    }
                  }
                }
                JOINT RightFinger2
                {
                  OFFSET -0.916 -9.2044 0.2193
                  CHANNELS 6 Xposition Yposition Zposition Zrotation Xrotation Yrotation
                  JOINT RightFinger21
                  {
                    OFFSET -0.0117 -4.1944 -0.0248
                    CHANNELS 6 Xposition Yposition Zposition Zrotation Xrotation Yrotation
                    JOINT RightFinger22
                    {
                      OFFSET -0.0071 -2.3249 -0.0142
                      CHANNELS 6 Xposition Yposition Zposition Zrotation Xrotation Yrotation
                      End Site
                      {
                        OFFSET 0.1475 -2.0882 0.0028
                      }
                    }
                  }
                }
                JOINT RightFinger3
                {
                  OFFSET -0.6113 -8.7231 -2.0637
                  CHANNELS 6 Xposition Yposition Zposition Zrotation Xrotation Yrotation
                  JOINT RightFinger31
                  {
                    OFFSET 0.1927 -3.8059 -0.2383
                    CHANNELS 6 Xposition Yposition Zposition Zrotation Xrotation Yrotation
                    JOINT RightFinger32
                    {
                      OFFSET 0.1091 -2.1688 -0.1362
                      CHANNELS 6 Xposition Yposition Zposition Zrotation Xrotation Yrotation
                      End Site
                      {
                        OFFSET 0.2358 -1.9176 -0.0906
                      }
                    }
                  }
                }
                JOINT RightFinger4
                {
                  OFFSET 0.6151 -8.0947 -3.564
                  CHANNELS 6 Xposition Yposition Zposition Zrotation Xrotation Yrotation
                  JOINT RightFinger41
                  {
                    OFFSET 0.4882 -2.341 -0.6462
                    CHANNELS 6 Xposition Yposition Zposition Zrotation Xrotation Yrotation
                    JOINT RightFinger42
                    {
                      OFFSET 0.3574 -1.7166 -0.4742
                      CHANNELS 6 Xposition Yposition Zposition Zrotation Xrotation Yrotation
                      End Site
                      {
                        OFFSET 0.4187 -1.5237 -0.3496
                      }
                    }
                  }
                }
                JOINT RightFinger0
                {
                  OFFSET 1.4199 -1.8761 1.4221
                  CHANNELS 6 Xposition Yposition Zposition Zrotation Xrotation Yrotation
                  JOINT RightFinger01
                  {
                    OFFSET 1.1472 -3.4929 2.6336
                    CHANNELS 6 Xposition Yposition Zposition Zrotation Xrotation Yrotation
                    JOINT RightFinger02
                    {
                      OFFSET 0.8229 -2.3 1.6571
                      CHANNELS 6 Xposition Yposition Zposition Zrotation Xrotation Yrotation
                      End Site
                      {
                        OFFSET 0.5822 -1.6914 1.1582
                      }
                    }
                  }
                }
              }
            }
          }
        }
      }
    }
  }
  JOINT RightHip
  {
    OFFSET -9.412 3.9771 -0.7758
    CHANNELS 6 Xposition Yposition Zposition Zrotation Xrotation Yrotation
    JOINT RightKnee
    {
      OFFSET -0.7531 -40.938 0
      CHANNELS 6 Xposition Yposition Zposition Zrotation Xrotation Yrotation
      JOINT RightAnkle
      {
        OFFSET 0 -40.1986 0
        CHANNELS 6 Xposition Yposition Zposition Zrotation Xrotation Yrotation
        JOINT RightToe
        {
          OFFSET 0 -4.4182 9.239
          CHANNELS 6 Xposition Yposition Zposition Zrotation Xrotation Yrotation
          End Site
          {
            OFFSET 0 0 6.1981
          }
        }
      }
    }
  }
  JOINT LeftHip
  {
    OFFSET 9.4119 3.9773 -0.7758
    CHANNELS 6 Xposition Yposition Zposition Zrotation Xrotation Yrotation
    JOINT LeftKnee
    {
      OFFSET 0.7532 -40.9383 0
      CHANNELS 6 Xposition Yposition Zposition Zrotation Xrotation Yrotation
      JOINT LeftAnkle
      {
        OFFSET 0 -40.1986 0
        CHANNELS 6 Xposition Yposition Zposition Zrotation Xrotation Yrotation
        JOINT LeftToe
        {
          OFFSET 0 -4.4182 9.239
          CHANNELS 6 Xposition Yposition Zposition Zrotation Xrotation Yrotation
          End Site
          {
            OFFSET 0 0 6.1981
          }
        }
      }
    }
  }
}
MOTION
Frames:	4
Frame Time:	0.0333333
-62.0525 5.01144 2.2194 -90 5.33609e-007 3.50023 -8.88178e-016 8.7983 -4.7612 0.0553052 -1.85892 -0.250221 -8.88178e-016 8.0291 0.4195 0.102518 -3.71807 -0.49904 -1.77636e-015 9.9351 -2.2114 0.102526 -3.71807 -0.49904 0 22.3885 -0.4656 1.24357e-005 18.3858 -5.05698e-006 -0.0001 12.643 3.4389 -7.78911e-006 -33.9054 -6.76063e-006 2.2603 21.606 7.4023 -17.054 1.39307 15.2643 13.5163 -1.1332 -5.0146 85.57 -65.8006 6.13846 -0.0995 -28.05 -0.2431 -42.8767 -63.8341 -14.4458 0.0679 -23.3996 -0.1402 -12.342 -5.12279 49.0291 0.7932 -9.069 2.5189 -0 -1.98785e-016 -0 -0.8272 -3.3923 0.5977 3.18055e-015 0 -1.98785e-016 -0.5649 -2.3158 0.4082 3.18055e-015 -1.98785e-016 -1.98785e-016 0.9159 -9.2044 0.2193 -0 -1.98785e-016 -0 0.0117 -4.1944 -0.0248 -0.0127815 0.00231107 8.2271e-005 0.0071 -2.3249 -0.0142 0 0 -1.98785e-016 0.6113 -8.7231 -2.0637 -0 -1.98785e-016 -0 -0.1927 -3.8059 -0.2383 -0.0160235 0.00296432 0.000858525 -0.1091 -2.1688 -0.1362 -9.65298e-006 9.2788e-006 1.59438e-007 -0.6151 -8.0947 -3.5641 -0 -1.98785e-016 -0 -0.4882 -2.341 -0.6462 -0.0126345 0.00311565 0.00283995 -0.3575 -1.7167 -0.4742 7.22054e-006 1.10177e-005 3.33748e-006 -1.42 -1.8761 1.4223 -0 -1.98785e-016 -0 -1.1471 -3.4929 2.6334 3.18055e-015 0 -1.98785e-016 -0.823 -2.3 1.6571 3.18055e-015 -1.98785e-016 -1.98785e-016 -2.2603 21.606 7.4023 15.3394 -1.04427 -25.0739 -13.5187 -1.1334 -5.0155 -87.5167 -67.883 -8.48278 0.0994 -28.0499 -0.2431 31.5834 -57.5828 3.83627 -0.0679 -23.3996 -0.1402 23.9889 -15.7325 -45.613 -0.7932 -9.0691 2.5189 -6.36111e-015 -2.48481e-016 -0 0.8272 -3.3923 0.5977 -3.18055e-015 -3.47873e-016 9.93923e-017 0.565 -2.3158 0.4082 -6.36111e-015 -1.98785e-016 -9.93923e-017 -0.916 -9.2044 0.2193 -6.36111e-015 -2.48481e-016 -0 -0.0117 -4.1944 -0.0248 0.0129842 0.00232464 -8.47091e-005 -0.0071 -2.3249 -0.0142 3.18055e-015 -2.48481e-016 1.98785e-016 -0.6113 -8.7231 -2.0637 -6.36111e-015 -2.48481e-016 -0 0.1927 -3.8059 -0.2383 0.0163744 0.00304783 -0.000872224 0.1091 -2.1688 -0.1362 -3.18055e-015 -4.96962e-017 -9.93923e-017 0.6151 -8.0947 -3.564 -6.36111e-015 -2.48481e-016 -0 0.4882 -2.341 -0.6462 0.0145224 0.00366543 -0.00324747 0.3574 -1.7166 -0.4742 -1.41004e-030 -9.34288e-015 -8.64713e-015 1.4199 -1.8761 1.4221 -6.36111e-015 -2.48481e-016 -0 1.1472 -3.4929 2.6336 -3.18055e-015 -3.47873e-016 9.93923e-017 0.8229 -2.3 1.6571 -6.36111e-015 -1.98785e-016 -9.93923e-017 -9.412 3.9771 -0.7758 -99.798 -19.4577 -70.8536 -0.7531 -40.938 7.10543e-015 109.366 7.63923 -85.6361 7.10543e-015 -40.1986 0 -15.3958 34.9886 38.0779 0 -4.4182 9.239 7.95139e-016 -2.14425e-007 1.59028e-015 9.4119 3.9773 -0.7758 -14.911 -87.071 -24.9752 0.7532 -40.9383 0 -70.8903 75.9341 83.6483 0 -40.1986 7.10543e-015 18.7255 16.2954 -25.5889 -8.88178e-016 -4.4182 9.239 -6.634e-006 -8.45603e-007 -1.54022e-006 
-61.5062 5.33694 1.3535 -90 6.4033e-007 3.50023 -8.88178e-016 8.7983 -4.7612 0.053831 -1.57677 -0.251032 8.88178e-016 8.0291 0.4195 0.100803 -3.15377 -0.50087 0 9.9351 -2.2114 0.100788 -3.15377 -0.50087 8.88178e-016 22.3885 -0.4656 2.02111e-005 21.7469 -1.40576e-005 -0.0001 12.643 3.4389 7.9247e-006 -38.5335 3.8486e-007 2.2603 21.606 7.4023 -16.9429 0.979219 13.2693 13.5163 -1.1332 -5.0146 85.5025 -65.148 6.05677 -0.0995001 -28.05 -0.2431 -37.7904 -61.405 -9.79379 0.0679 -23.3996 -0.1402 -12.8995 -7.46178 48.1449 0.7932 -9.069 2.5189 -9.54166e-015 0 -0 -0.8272 -3.3923 0.5977 -2.27353e-006 -7.88126e-006 3.41775e-006 -0.5649 -2.3158 0.4082 -1.27222e-014 0 1.98785e-016 0.9159 -9.20439 0.2193 -9.54166e-015 0 -0 0.0117 -4.1944 -0.0248 -0.0128424 0.00232765 7.48709e-005 0.0071 -2.3249 -0.0142 7.16217e-006 1.92655e-007 -8.80767e-008 0.6113 -8.72309 -2.0637 -9.54166e-015 0 -0 -0.1927 -3.8059 -0.2383 -0.0160785 0.00299061 0.000860817 -0.1091 -2.1688 -0.1362 -3.09226e-007 9.43885e-006 1.54865e-007 -0.6151 -8.0947 -3.5641 -9.54166e-015 0 -0 -0.4882 -2.341 -0.6462 -0.0125765 0.00311876 0.00282672 -0.3575 -1.7167 -0.4742 0 1.98785e-016 -0 -1.42 -1.8761 1.4223 -9.54166e-015 0 -0 -1.1471 -3.4929 2.6334 -2.27353e-006 -7.88126e-006 3.41775e-006 -0.823 -2.3 1.6571 -1.27222e-014 0 1.98785e-016 -2.2603 21.606 7.4023 15.3497 -1.20921 -22.6653 -13.5187 -1.1334 -5.0155 -87.3125 -67.4289 -8.27091 0.0994 -28.0499 -0.2431 28.9577 -55.4456 1.55275 -0.0679 -23.3996 -0.1402 23.6803 -16.9311 -44.827 -0.7932 -9.0691 2.5189 7.75882e-034 -2.98177e-016 1.49089e-016 0.8272 -3.3923 0.5977 6.36111e-015 -1.98785e-016 2.48481e-016 0.565 -2.3158 0.4082 -3.18055e-015 -2.48481e-016 4.96962e-017 -0.916 -9.2044 0.2193 7.75882e-034 -2.98177e-016 1.49089e-016 -0.0117 -4.1944 -0.0248 0.0129625 0.0023212 -8.07231e-005 -0.0071 -2.3249 -0.0142 -9.54166e-015 3.52843e-015 -8.84592e-015 -0.6113 -8.7231 -2.0637 7.75882e-034 -2.98177e-016 1.49089e-016 0.1927 -3.8059 -0.2383 0.0162557 0.00302501 -0.000872593 0.1091 -2.1688 -0.1362 0 0 -9.93923e-017 0.6151 -8.0947 -3.564 7.75882e-034 -2.98177e-016 1.49089e-016 0.4882 -2.341 -0.6462 0.0146344 0.00369476 -0.00328083 0.3574 -1.7166 -0.4742 6.89673e-034 1.98785e-016 -1.98785e-016 1.4199 -1.8761 1.4221 7.75882e-034 -2.98177e-016 1.49089e-016 1.1472 -3.4929 2.6336 6.36111e-015 -1.98785e-016 2.48481e-016 0.8229 -2.3 1.6571 -3.18055e-015 -2.48481e-016 4.96962e-017 -9.412 3.9771 -0.7758 -99.3261 -20.9818 -70.5654 -0.7531 -40.938 7.10543e-015 108.052 4.04426 -84.0586 7.10543e-015 -40.1986 0 -14.8668 35.0421 37.4454 0 -4.4182 9.239 -1.48148e-005 1.89324e-006 7.87401e-007 9.4119 3.9773 -0.7758 -8.34898 -86.1213 -18.6915 0.7532 -40.9383 0 -62.3016 74.7503 75.3826 1.77636e-015 -40.1986 0 19.1503 17.5745 -26.2991 1.77636e-015 -4.4182 9.239 -1.38191e-005 -1.19327e-006 -1.48031e-006 
-60.9976 5.65945 0.528076 -90 0 3.50023 -8.88178e-016 8.7983 -4.7612 0.0524577 -1.31025 -0.251773 -8.88179e-016 8.0291 0.4195 0.0991974 -2.62072 -0.502542 -8.88179e-016 9.9351 -2.2114 0.0991696 -2.62072 -0.502542 0 22.3885 -0.4656 -9.02669e-006 24.9402 -1.02122e-006 -0.0001 12.643 3.4389 -1.42872e-005 -42.9588 -7.91867e-006 2.2603 21.606 7.4023 -16.8508 0.584772 11.3831 13.5163 -1.1332 -5.0146 85.4425 -64.5319 5.98337 -0.0995 -28.05 -0.2431 -33.6843 -58.9382 -6.10503 0.0679 -23.3996 -0.1402 -13.4653 -9.66921 47.2808 0.7932 -9.069 2.5189 -4.82629e-006 -1.16263e-007 8.80581e-008 -0.8272 -3.3923 0.5977 6.36111e-015 -1.98785e-016 -1.98785e-016 -0.5649 -2.3158 0.4082 -2.27096e-006 -7.95939e-006 3.42246e-006 0.9159 -9.2044 0.2193 -4.82629e-006 -1.16263e-007 8.80581e-008 0.0117 -4.1944 -0.0248 -0.0128182 0.00232606 8.61177e-005 0.0071 -2.3249 -0.0142 2.49093e-006 -1.40609e-005 -7.96498e-008 0.6113 -8.7231 -2.0637 -4.82629e-006 -1.16263e-007 8.80581e-008 -0.1927 -3.8059 -0.2383 -0.0160159 0.00299651 0.000849698 -0.1091 -2.1688 -0.1362 -2.14448e-006 -5.07645e-006 1.02507e-005 -0.6151 -8.0947 -3.5641 -4.82629e-006 -1.16263e-007 8.80581e-008 -0.4882 -2.341 -0.6462 -0.0126351 0.00312569 0.00283938 -0.3575 -1.7167 -0.4742 -6.36111e-015 1.98785e-016 1.98785e-016 -1.42 -1.8761 1.4223 -4.82629e-006 -1.16263e-007 8.80581e-008 -1.1471 -3.4929 2.6334 6.36111e-015 -1.98785e-016 -1.98785e-016 -0.823 -2.3 1.6571 -2.27096e-006 -7.95939e-006 3.42246e-006 -2.2603 21.606 7.4023 15.3657 -1.36471 -20.3846 -13.5187 -1.1334 -5.0155 -87.1282 -67.0005 -8.07931 0.0994 -28.0499 -0.2431 26.7316 -53.3713 -0.345589 -0.0679 -23.3996 -0.1402 23.4027 -18.067 -44.0862 -0.7932 -9.0691 2.5189 -6.36111e-015 -9.93923e-017 4.96962e-017 0.8272 -3.3923 0.5977 3.18055e-015 -9.93923e-017 9.93923e-017 0.565 -2.3158 0.4082 -6.36111e-015 -9.93923e-017 9.93923e-017 -0.916 -9.2044 0.2193 -6.36111e-015 -9.93923e-017 4.96962e-017 -0.0117 -4.1944 -0.0248 0.0129335 0.00231103 -8.42606e-005 -0.0071 -2.3249 -0.0142 -0 0 9.93923e-017 -0.6113 -8.7231 -2.0637 -6.36111e-015 -9.93923e-017 4.96962e-017 0.1927 -3.8059 -0.2383 0.0163327 0.00303831 -0.000879677 0.1091 -2.1688 -0.1362 -4.95135e-006 -3.7184e-006 -3.49148e-006 0.6151 -8.0947 -3.564 -6.36111e-015 -9.93923e-017 4.96962e-017 0.4882 -2.341 -0.6462 0.0145391 0.00367281 -0.00325682 0.3574 -1.7166 -0.4742 1.26365e-007 1.03082e-007 7.40371e-008 1.4199 -1.8761 1.4221 -6.36111e-015 -9.93923e-017 4.96962e-017 1.1472 -3.4929 2.6336 3.18055e-015 -9.93923e-017 9.93923e-017 0.8229 -2.3 1.6571 -6.36111e-015 -9.93923e-017 9.93923e-017 -9.412 3.9771 -0.7758 -98.7951 -22.3476 -70.3064 -0.7531 -40.938 -7.10543e-015 105.933 1.59193 -82.7295 -7.10543e-015 -40.1986 0 -14.3587 35.1688 36.7529 -1.42109e-014 -4.4182 9.239 -2.67974e-007 2.96277e-008 -2.477e-006 9.4119 3.9773 -0.7758 -4.48026 -85.3564 -15.0971 0.7532 -40.9383 0 -55.8561 73.4529 69.2217 0 -40.1986 0 19.5656 18.7836 -26.9887 -1.77636e-015 -4.4182 9.239 1.59028e-015 -3.18055e-015 1.59028e-015 
-60.4955 5.98812 -0.302736 -90 1.17394e-006 3.50023 -1.77636e-015 8.7983 -4.7612 0.0510794 -1.04349 -0.252479 0 8.0291 0.4195 0.0975626 -2.08718 -0.504155 0 9.9351 -2.2114 0.0975481 -2.08718 -0.504153 -8.88178e-016 22.3885 -0.4656 2.42324e-005 28.1493 -1.81124e-005 -0.0001 12.643 3.4389 1.26041e-005 -47.4267 7.10104e-007 2.2603 21.606 7.4023 -16.7716 0.186748 9.49425 13.5163 -1.1332 -5.0146 85.3857 -63.9157 5.91314 -0.0995 -28.05 -0.2431 -30.1328 -56.3411 -2.97834 0.0679 -23.3996 -0.1402 -14.071 -11.8742 46.3856 0.7932 -9.069 2.5189 7.41037e-006 -1.54582e-005 -3.65119e-006 -0.8272 -3.3923 0.5977 1.27222e-014 -3.97569e-016 -1.98785e-016 -0.5649 -2.3158 0.4082 1.59028e-014 -3.97569e-016 -3.97569e-016 0.9159 -9.2044 0.2193 7.41037e-006 -1.54582e-005 -3.65119e-006 0.0117 -4.1944 -0.0248 -0.0128061 0.00234285 9.24935e-005 0.0071 -2.3249 -0.0142 -1.59028e-014 -1.98785e-016 1.98785e-016 0.6113 -8.7231 -2.0637 7.41037e-006 -1.54582e-005 -3.65119e-006 -0.1927 -3.8059 -0.2383 -0.0160564 0.00300598 0.00085864 -0.1091 -2.1688 -0.1362 -6.36111e-015 -7.95139e-016 1.98785e-016 -0.6151 -8.0947 -3.5641 7.41037e-006 -1.54582e-005 -3.65119e-006 -0.4882 -2.341 -0.6462 -0.0125401 0.00313279 0.00281681 -0.3575 -1.7167 -0.4742 -2.62239e-006 1.75216e-006 -6.74957e-006 -1.42 -1.8761 1.4223 7.41037e-006 -1.54582e-005 -3.65119e-006 -1.1471 -3.4929 2.6334 1.27222e-014 -3.97569e-016 -1.98785e-016 -0.823 -2.3 1.6571 1.59028e-014 -3.97569e-016 -3.97569e-016 -2.2603 21.606 7.4023 15.3881 -1.51991 -18.0978 -13.5187 -1.1334 -5.0155 -86.9494 -66.5711 -7.89328 0.0994 -28.0499 -0.2431 24.7138 -51.2521 -2.02999 -0.0679 -23.3996 -0.1402 23.1387 -19.2075 -43.3454 -0.7932 -9.0691 2.5189 3.18055e-015 -1.49089e-016 -0 0.8272 -3.3923 0.5977 3.18055e-015 0 4.96962e-017 0.565 -2.3158 0.4082 -3.18055e-015 -1.98785e-016 9.93923e-017 -0.916 -9.2044 0.2193 3.18055e-015 -1.49089e-016 -0 -0.0117 -4.1944 -0.0248 0.012955 0.00231601 -8.76333e-005 -0.0071 -2.3249 -0.0142 -6.36111e-015 9.93923e-017 -9.93923e-017 -0.6113 -8.7231 -2.0637 3.18055e-015 -1.49089e-016 -0 0.1927 -3.8059 -0.2383 0.016359 0.0030414 -0.000881273 0.1091 -2.1688 -0.1362 9.54166e-015 -2.48481e-016 9.93923e-017 0.6151 -8.0947 -3.564 3.18055e-015 -1.49089e-016 -0 0.4882 -2.341 -0.6462 0.0146202 0.00369624 -0.00327933 0.3574 -1.7166 -0.4742 -6.36111e-015 -9.39258e-015 -8.74653e-015 1.4199 -1.8761 1.4221 3.18055e-015 -1.49089e-016 -0 1.1472 -3.4929 2.6336 3.18055e-015 0 4.96962e-017 0.8229 -2.3 1.6571 -3.18055e-015 -1.98785e-016 9.93923e-017 -9.412 3.9771 -0.7758 -98.5544 -23.7865 -70.6414 -0.7531 -40.938 7.10543e-015 103.577 0.426619 -80.376 -1.42109e-014 -40.1986 -7.10543e-015 -12.3654 35.647 34.0146 0 -4.4182 9.239 -5.56597e-015 2.87773e-009 3.18055e-015 9.4119 3.9773 -0.7758 -1.59638 -84.3824 -12.4881 0.7532 -40.9383 0 -49.8707 71.8619 63.5362 -1.77636e-015 -40.1986 0 19.9994 19.9878 -27.6947 8.88178e-016 -4.4182 9.239 -7.95139e-016 -6.36111e-015 3.18055e-015 
